<mxfile host="app.diagrams.net" agent="Mozilla/5.0 (Windows NT 10.0; Win64; x64) AppleWebKit/537.36 (KHTML, like Gecko) Chrome/134.0.0.0 Safari/537.36" version="26.1.1">
  <diagram name="Página-1" id="bXyUmm0jjk4IurhE9vVV">
    <mxGraphModel grid="1" page="1" gridSize="10" guides="1" tooltips="1" connect="1" arrows="1" fold="1" pageScale="1" pageWidth="827" pageHeight="1169" math="0" shadow="0">
      <root>
        <mxCell id="0" />
        <mxCell id="1" parent="0" />
        <mxCell id="qFHkR71eeYyL2I2uWZvE-3" value="" style="edgeStyle=orthogonalEdgeStyle;rounded=0;orthogonalLoop=1;jettySize=auto;html=1;" edge="1" parent="1" source="qFHkR71eeYyL2I2uWZvE-1" target="qFHkR71eeYyL2I2uWZvE-2">
          <mxGeometry relative="1" as="geometry" />
        </mxCell>
        <mxCell id="qFHkR71eeYyL2I2uWZvE-1" value="inicio" style="ellipse;whiteSpace=wrap;html=1;" vertex="1" parent="1">
          <mxGeometry x="340" y="10" width="120" height="80" as="geometry" />
        </mxCell>
        <mxCell id="qFHkR71eeYyL2I2uWZvE-5" value="" style="edgeStyle=orthogonalEdgeStyle;rounded=0;orthogonalLoop=1;jettySize=auto;html=1;" edge="1" parent="1" source="qFHkR71eeYyL2I2uWZvE-2" target="qFHkR71eeYyL2I2uWZvE-4">
          <mxGeometry relative="1" as="geometry" />
        </mxCell>
        <mxCell id="qFHkR71eeYyL2I2uWZvE-2" value="preco_fabrica:30.000.00&lt;div&gt;imposto: 32%&lt;/div&gt;&lt;div&gt;distribuicao:10%&lt;/div&gt;" style="shape=parallelogram;perimeter=parallelogramPerimeter;whiteSpace=wrap;html=1;fixedSize=1;" vertex="1" parent="1">
          <mxGeometry x="290" y="170" width="220" height="60" as="geometry" />
        </mxCell>
        <mxCell id="qFHkR71eeYyL2I2uWZvE-7" value="" style="edgeStyle=orthogonalEdgeStyle;rounded=0;orthogonalLoop=1;jettySize=auto;html=1;" edge="1" parent="1" source="qFHkR71eeYyL2I2uWZvE-4" target="qFHkR71eeYyL2I2uWZvE-6">
          <mxGeometry relative="1" as="geometry" />
        </mxCell>
        <mxCell id="qFHkR71eeYyL2I2uWZvE-4" value="Preço =&amp;nbsp; (preco_fabrica + imposto) + distribuicao&amp;nbsp;" style="whiteSpace=wrap;html=1;" vertex="1" parent="1">
          <mxGeometry x="295" y="280" width="210" height="60" as="geometry" />
        </mxCell>
        <mxCell id="qFHkR71eeYyL2I2uWZvE-9" value="" style="edgeStyle=orthogonalEdgeStyle;rounded=0;orthogonalLoop=1;jettySize=auto;html=1;" edge="1" parent="1" source="qFHkR71eeYyL2I2uWZvE-6" target="qFHkR71eeYyL2I2uWZvE-8">
          <mxGeometry relative="1" as="geometry" />
        </mxCell>
        <mxCell id="qFHkR71eeYyL2I2uWZvE-6" value="Resultado" style="shape=document;whiteSpace=wrap;html=1;boundedLbl=1;" vertex="1" parent="1">
          <mxGeometry x="340" y="410" width="120" height="80" as="geometry" />
        </mxCell>
        <mxCell id="qFHkR71eeYyL2I2uWZvE-8" value="fim" style="ellipse;whiteSpace=wrap;html=1;" vertex="1" parent="1">
          <mxGeometry x="360" y="570" width="80" height="80" as="geometry" />
        </mxCell>
      </root>
    </mxGraphModel>
  </diagram>
</mxfile>
